{"title":"Smurfs The Lost Village 2017 720p Esub BluRay Dual Audio English","magnet":"magnet:?xt=urn:btih:5193e2e456c947c3f4b9a9cd327ca68f27c01df4&dn=Smurfs+The+Lost+Village+2017+720p+Esub+BluRay+Dual+Audio+English&tr=udp%3A%2F%2Ftracker.leechers-paradise.org%3A6969&tr=udp%3A%2F%2Fzer0day.ch%3A1337&tr=udp%3A%2F%2Fopen.demonii.com%3A1337&tr=udp%3A%2F%2Ftracker.coppersurfer.tk%3A6969&tr=udp%3A%2F%2Fexodus.desync.com%3A6969","uploader":"jatt13","categoryP":"video","categoryS":"hd___movies","size":"736385873","seeders":"70","leechers":"84","description":"[center]NITE HINDI AUDIO CAM\r\nVideo\r\nID                             : 1\r\nFormat                         : AVC\r\nCodec ID                       : V_MPEG4/ISO/AVC\r\nDuration                       : 1 h 29 min\r\nBit rate                       : 900 kb/s\r\nWidth                          : 1 280 pixels\r\nHeight                         : 694 pixels\r\nDisplay aspect ratio           : 1.85:1\r\nFrame rate mode                : Constant\r\nFrame rate                     : 23.976 (24000/1001) FPS\r\nStream size                    : 578 MiB (82%)\r\nWriting library                : x264 core 148\r\n\r\nAudio #1\r\nFormat                         : AC-3\r\nDuration                       : 1 h 29 min\r\nBit rate mode                  : Constant\r\nBit rate                       : 96.0 kb/s\r\nChannel(s)                     : 6 channels\r\nChannel positions              : Front: L C R, Side: L R, LFE\r\nSampling rate                  : 44.1 kHz\r\nStream size                    : 61.6 MiB (9%)\r\nLanguage                       : English\r\n\r\nAudio #2\r\nFormat                         : AC-3\r\nDuration                       : 1 h 29 min\r\nBit rate mode                  : Constant\r\nBit rate                       : 96.0 kb/s\r\nChannel(s)                     : 6 channels\r\nChannel positions              : Front: L C R, Side: L R, LFE\r\nSampling rate                  : 44.1 kHz\r\nStream size                    : 61.6 MiB (9%)\r\nLanguage                       : Hindi\r\n\r\nText\r\nTitle                          : Smurfs The Lost Village 2017 YIFY\r\nLanguage                       : English\r\n[img]https://lookimg.com/images/2017/06/28/SmurfsTheLostVillage2017720pEsubBluRayDualAudioEnglishHindiCAMGOPISAHI.mkv_snapshot_00.12.47_2017.06.28_16.06.57.jpg[/img]\r\n[img]https://lookimg.com/images/2017/06/28/SmurfsTheLostVillage2017720pEsubBluRayDualAudioEnglishHindiCAMGOPISAHI.mkv_snapshot_00.35.56_2017.06.28_16.07.04.jpg[/img]\r\n[img]https://lookimg.com/images/2017/06/28/SmurfsTheLostVillage2017720pEsubBluRayDualAudioEnglishHindiCAMGOPISAHI.mkv_thumbs_2017.06.28_16.06.21.jpg[/img]\r\n[/center]","last_updated":"2017-06-29T12:01:06.863Z","parsed":{"xt":"urn:btih:5193e2e456c947c3f4b9a9cd327ca68f27c01df4","dn":"Smurfs The Lost Village 2017 720p Esub BluRay Dual Audio English","tr":["udp://exodus.desync.com:6969","udp://open.demonii.com:1337","udp://tracker.coppersurfer.tk:6969","udp://tracker.leechers-paradise.org:6969","udp://zer0day.ch:1337"],"infoHash":"5193e2e456c947c3f4b9a9cd327ca68f27c01df4","infoHashBuffer":{"type":"Buffer","data":[81,147,226,228,86,201,71,195,244,185,169,205,50,124,166,143,39,192,29,244]},"name":"Smurfs The Lost Village 2017 720p Esub BluRay Dual Audio English","announce":["udp://exodus.desync.com:6969","udp://open.demonii.com:1337","udp://tracker.coppersurfer.tk:6969","udp://tracker.leechers-paradise.org:6969","udp://zer0day.ch:1337"],"urlList":[]}}